<mxfile host="app.diagrams.net" modified="2023-12-06T13:17:12.227Z" agent="Mozilla/5.0 (Windows NT 10.0; Win64; x64) AppleWebKit/537.36 (KHTML, like Gecko) Chrome/119.0.0.0 Safari/537.36" etag="qDRgVG9fPdHiqZKCaQUL" version="22.1.5" type="device">
  <diagram name="Page-1" id="hk7d32l5PmgcuQNbBxK9">
    <mxGraphModel dx="1050" dy="534" grid="1" gridSize="10" guides="1" tooltips="1" connect="1" arrows="1" fold="1" page="1" pageScale="1" pageWidth="850" pageHeight="1100" math="0" shadow="0">
      <root>
        <mxCell id="0" />
        <mxCell id="1" parent="0" />
        <mxCell id="U55zODKKsQIm6s94rYA2-24" style="edgeStyle=orthogonalEdgeStyle;rounded=0;orthogonalLoop=1;jettySize=auto;html=1;entryX=0;entryY=0.5;entryDx=0;entryDy=0;" edge="1" parent="1" source="U55zODKKsQIm6s94rYA2-1" target="U55zODKKsQIm6s94rYA2-2">
          <mxGeometry relative="1" as="geometry" />
        </mxCell>
        <mxCell id="U55zODKKsQIm6s94rYA2-25" style="edgeStyle=orthogonalEdgeStyle;rounded=0;orthogonalLoop=1;jettySize=auto;html=1;entryX=0;entryY=0.5;entryDx=0;entryDy=0;" edge="1" parent="1" source="U55zODKKsQIm6s94rYA2-1" target="U55zODKKsQIm6s94rYA2-4">
          <mxGeometry relative="1" as="geometry" />
        </mxCell>
        <mxCell id="U55zODKKsQIm6s94rYA2-1" value="Data" style="rounded=1;whiteSpace=wrap;html=1;fillColor=#d5e8d4;strokeColor=#82b366;" vertex="1" parent="1">
          <mxGeometry x="40" y="110" width="90" height="40" as="geometry" />
        </mxCell>
        <mxCell id="U55zODKKsQIm6s94rYA2-29" style="edgeStyle=orthogonalEdgeStyle;rounded=0;orthogonalLoop=1;jettySize=auto;html=1;entryX=0;entryY=0.75;entryDx=0;entryDy=0;" edge="1" parent="1" source="U55zODKKsQIm6s94rYA2-2" target="U55zODKKsQIm6s94rYA2-5">
          <mxGeometry relative="1" as="geometry" />
        </mxCell>
        <mxCell id="U55zODKKsQIm6s94rYA2-2" value="Chunk1&amp;nbsp;&lt;span style=&quot;white-space: pre;&quot;&gt;&#x9;&lt;/span&gt;" style="rounded=1;whiteSpace=wrap;html=1;fillColor=#d5e8d4;strokeColor=#82b366;" vertex="1" parent="1">
          <mxGeometry x="250" y="50" width="80" height="30" as="geometry" />
        </mxCell>
        <mxCell id="U55zODKKsQIm6s94rYA2-27" style="edgeStyle=orthogonalEdgeStyle;rounded=0;orthogonalLoop=1;jettySize=auto;html=1;entryX=0;entryY=0.75;entryDx=0;entryDy=0;" edge="1" parent="1" source="U55zODKKsQIm6s94rYA2-3" target="U55zODKKsQIm6s94rYA2-5">
          <mxGeometry relative="1" as="geometry" />
        </mxCell>
        <mxCell id="U55zODKKsQIm6s94rYA2-3" value="Chunk 2" style="rounded=1;whiteSpace=wrap;html=1;fillColor=#d5e8d4;strokeColor=#82b366;" vertex="1" parent="1">
          <mxGeometry x="250" y="110" width="80" height="30" as="geometry" />
        </mxCell>
        <mxCell id="U55zODKKsQIm6s94rYA2-28" style="edgeStyle=orthogonalEdgeStyle;rounded=0;orthogonalLoop=1;jettySize=auto;html=1;entryX=0;entryY=0.75;entryDx=0;entryDy=0;" edge="1" parent="1" source="U55zODKKsQIm6s94rYA2-4" target="U55zODKKsQIm6s94rYA2-5">
          <mxGeometry relative="1" as="geometry" />
        </mxCell>
        <mxCell id="U55zODKKsQIm6s94rYA2-4" value="Chunk 3" style="rounded=1;whiteSpace=wrap;html=1;fillColor=#d5e8d4;strokeColor=#82b366;" vertex="1" parent="1">
          <mxGeometry x="250" y="170" width="80" height="30" as="geometry" />
        </mxCell>
        <mxCell id="U55zODKKsQIm6s94rYA2-19" style="edgeStyle=orthogonalEdgeStyle;rounded=0;orthogonalLoop=1;jettySize=auto;html=1;entryX=0.5;entryY=0;entryDx=0;entryDy=0;" edge="1" parent="1" source="U55zODKKsQIm6s94rYA2-5" target="U55zODKKsQIm6s94rYA2-6">
          <mxGeometry relative="1" as="geometry" />
        </mxCell>
        <mxCell id="U55zODKKsQIm6s94rYA2-5" value="Pinecone&lt;br&gt;Vector Db" style="rounded=0;whiteSpace=wrap;html=1;fillColor=#fff2cc;strokeColor=#d6b656;" vertex="1" parent="1">
          <mxGeometry x="420" y="90" width="120" height="40" as="geometry" />
        </mxCell>
        <mxCell id="U55zODKKsQIm6s94rYA2-20" style="edgeStyle=orthogonalEdgeStyle;rounded=0;orthogonalLoop=1;jettySize=auto;html=1;entryX=0.5;entryY=0;entryDx=0;entryDy=0;" edge="1" parent="1" source="U55zODKKsQIm6s94rYA2-6" target="U55zODKKsQIm6s94rYA2-7">
          <mxGeometry relative="1" as="geometry" />
        </mxCell>
        <mxCell id="U55zODKKsQIm6s94rYA2-6" value="Ranked Results&lt;span style=&quot;white-space: pre;&quot;&gt;&#x9;&lt;/span&gt;" style="rounded=0;whiteSpace=wrap;html=1;fillColor=#f5f5f5;fontColor=#333333;strokeColor=#666666;" vertex="1" parent="1">
          <mxGeometry x="420" y="200" width="120" height="40" as="geometry" />
        </mxCell>
        <mxCell id="U55zODKKsQIm6s94rYA2-21" style="edgeStyle=orthogonalEdgeStyle;rounded=0;orthogonalLoop=1;jettySize=auto;html=1;" edge="1" parent="1" source="U55zODKKsQIm6s94rYA2-7" target="U55zODKKsQIm6s94rYA2-8">
          <mxGeometry relative="1" as="geometry" />
        </mxCell>
        <mxCell id="U55zODKKsQIm6s94rYA2-7" value="GPT 3.5" style="rounded=0;whiteSpace=wrap;html=1;fillColor=#f5f5f5;fontColor=#333333;strokeColor=#666666;" vertex="1" parent="1">
          <mxGeometry x="420" y="290" width="120" height="40" as="geometry" />
        </mxCell>
        <mxCell id="U55zODKKsQIm6s94rYA2-8" value="Generated Answer" style="shape=parallelogram;perimeter=parallelogramPerimeter;whiteSpace=wrap;html=1;fixedSize=1;fillColor=#f5f5f5;fontColor=#333333;strokeColor=#666666;" vertex="1" parent="1">
          <mxGeometry x="410" y="380" width="130" height="30" as="geometry" />
        </mxCell>
        <mxCell id="U55zODKKsQIm6s94rYA2-18" style="edgeStyle=orthogonalEdgeStyle;rounded=0;orthogonalLoop=1;jettySize=auto;html=1;entryX=1;entryY=0.5;entryDx=0;entryDy=0;" edge="1" parent="1" source="U55zODKKsQIm6s94rYA2-10" target="U55zODKKsQIm6s94rYA2-5">
          <mxGeometry relative="1" as="geometry">
            <Array as="points">
              <mxPoint x="680" y="110" />
            </Array>
          </mxGeometry>
        </mxCell>
        <mxCell id="U55zODKKsQIm6s94rYA2-10" value="Semantic Search" style="rounded=0;whiteSpace=wrap;html=1;fillColor=#ffe6cc;strokeColor=#d79b00;" vertex="1" parent="1">
          <mxGeometry x="610" y="200" width="120" height="40" as="geometry" />
        </mxCell>
        <mxCell id="U55zODKKsQIm6s94rYA2-11" value="Compute user query embeddings" style="rounded=0;whiteSpace=wrap;html=1;fillColor=#ffe6cc;strokeColor=#d79b00;" vertex="1" parent="1">
          <mxGeometry x="620" y="330" width="120" height="40" as="geometry" />
        </mxCell>
        <mxCell id="U55zODKKsQIm6s94rYA2-12" value="User Query" style="rounded=0;whiteSpace=wrap;html=1;fillColor=#dae8fc;strokeColor=#6c8ebf;" vertex="1" parent="1">
          <mxGeometry x="510" y="460" width="120" height="40" as="geometry" />
        </mxCell>
        <mxCell id="U55zODKKsQIm6s94rYA2-13" value="Actor" style="shape=umlActor;verticalLabelPosition=bottom;verticalAlign=top;html=1;outlineConnect=0;" vertex="1" parent="1">
          <mxGeometry x="270" y="440" width="30" height="60" as="geometry" />
        </mxCell>
        <mxCell id="U55zODKKsQIm6s94rYA2-15" value="" style="endArrow=classic;html=1;rounded=0;entryX=0;entryY=0.25;entryDx=0;entryDy=0;exitX=0.5;exitY=0.5;exitDx=0;exitDy=0;exitPerimeter=0;" edge="1" parent="1" source="U55zODKKsQIm6s94rYA2-13" target="U55zODKKsQIm6s94rYA2-12">
          <mxGeometry width="50" height="50" relative="1" as="geometry">
            <mxPoint x="400" y="300" as="sourcePoint" />
            <mxPoint x="450" y="250" as="targetPoint" />
            <Array as="points" />
          </mxGeometry>
        </mxCell>
        <mxCell id="U55zODKKsQIm6s94rYA2-16" style="edgeStyle=orthogonalEdgeStyle;rounded=0;orthogonalLoop=1;jettySize=auto;html=1;entryX=0.65;entryY=1.06;entryDx=0;entryDy=0;entryPerimeter=0;" edge="1" parent="1">
          <mxGeometry relative="1" as="geometry">
            <mxPoint x="636" y="467.6" as="sourcePoint" />
            <mxPoint x="704" y="370" as="targetPoint" />
            <Array as="points">
              <mxPoint x="704" y="467.6" />
            </Array>
          </mxGeometry>
        </mxCell>
        <mxCell id="U55zODKKsQIm6s94rYA2-17" style="edgeStyle=orthogonalEdgeStyle;rounded=0;orthogonalLoop=1;jettySize=auto;html=1;entryX=0.583;entryY=1;entryDx=0;entryDy=0;entryPerimeter=0;" edge="1" parent="1" source="U55zODKKsQIm6s94rYA2-11" target="U55zODKKsQIm6s94rYA2-10">
          <mxGeometry relative="1" as="geometry" />
        </mxCell>
        <mxCell id="U55zODKKsQIm6s94rYA2-22" style="edgeStyle=orthogonalEdgeStyle;rounded=0;orthogonalLoop=1;jettySize=auto;html=1;entryX=0.75;entryY=0.1;entryDx=0;entryDy=0;entryPerimeter=0;" edge="1" parent="1" source="U55zODKKsQIm6s94rYA2-8" target="U55zODKKsQIm6s94rYA2-13">
          <mxGeometry relative="1" as="geometry" />
        </mxCell>
        <mxCell id="U55zODKKsQIm6s94rYA2-23" style="edgeStyle=orthogonalEdgeStyle;rounded=0;orthogonalLoop=1;jettySize=auto;html=1;entryX=0.125;entryY=0.667;entryDx=0;entryDy=0;entryPerimeter=0;" edge="1" parent="1" source="U55zODKKsQIm6s94rYA2-1" target="U55zODKKsQIm6s94rYA2-3">
          <mxGeometry relative="1" as="geometry" />
        </mxCell>
        <mxCell id="U55zODKKsQIm6s94rYA2-30" value="Embeddings" style="text;html=1;align=center;verticalAlign=middle;resizable=0;points=[];autosize=1;strokeColor=none;fillColor=none;" vertex="1" parent="1">
          <mxGeometry x="315" y="90" width="90" height="30" as="geometry" />
        </mxCell>
        <mxCell id="U55zODKKsQIm6s94rYA2-31" value="&lt;span style=&quot;color: rgb(0, 0, 0); font-family: Helvetica; font-size: 12px; font-style: normal; font-variant-ligatures: normal; font-variant-caps: normal; font-weight: 400; letter-spacing: normal; orphans: 2; text-align: center; text-indent: 0px; text-transform: none; widows: 2; word-spacing: 0px; -webkit-text-stroke-width: 0px; background-color: rgb(251, 251, 251); text-decoration-thickness: initial; text-decoration-style: initial; text-decoration-color: initial; float: none; display: inline !important;&quot;&gt;Embeddings&lt;/span&gt;" style="text;whiteSpace=wrap;html=1;" vertex="1" parent="1">
          <mxGeometry x="330" y="40" width="100" height="40" as="geometry" />
        </mxCell>
        <mxCell id="U55zODKKsQIm6s94rYA2-32" value="&lt;span style=&quot;color: rgb(0, 0, 0); font-family: Helvetica; font-size: 12px; font-style: normal; font-variant-ligatures: normal; font-variant-caps: normal; font-weight: 400; letter-spacing: normal; orphans: 2; text-align: center; text-indent: 0px; text-transform: none; widows: 2; word-spacing: 0px; -webkit-text-stroke-width: 0px; background-color: rgb(251, 251, 251); text-decoration-thickness: initial; text-decoration-style: initial; text-decoration-color: initial; float: none; display: inline !important;&quot;&gt;Embeddings&lt;/span&gt;" style="text;whiteSpace=wrap;html=1;" vertex="1" parent="1">
          <mxGeometry x="330" y="180" width="100" height="40" as="geometry" />
        </mxCell>
      </root>
    </mxGraphModel>
  </diagram>
</mxfile>
